<?xml version="1.0" encoding="UTF-8"?>
<svg width="74" height="79" fill="black" viewBox="0 0 74 79" xmlns="http://www.w3.org/2000/svg">
 <path d="m73.701 17.432c-1.1398-8.3808-8.524-14.985-17.277-16.265-1.4768-0.21626-7.0722-1.0033-20.034-1.0033h-0.0968c-12.965 0-15.747 0.78702-17.224 1.0033-8.5097 1.2444-16.281 7.1789-18.166 15.659-0.90688 4.1762-1.0037 8.8062-0.83519 13.053 0.24016 6.0906 0.28676 12.17 0.84595 18.236 0.38658 4.0292 1.061 8.0263 2.0181 11.961 1.7923 7.2676 9.0474 13.316 16.155 15.783 7.6103 2.5732 15.794 3.0003 23.636 1.2337 0.8626-0.1985 1.7158-0.429 2.5593-0.6913 1.9034-0.5991 4.1366-1.2692 5.7783-2.4462 0.0225-0.0165 0.041-0.0378 0.054-0.0624 0.013-0.0245 0.0203-0.0517 0.0212-0.0794v-5.8778c-4e-4 -0.0259-0.0066-0.0514-0.0182-0.0746-0.0117-0.0232-0.0284-0.0436-0.0491-0.0595-0.0206-0.016-0.0446-0.0272-0.0701-0.0329-0.0256-0.0056-0.0521-0.0055-0.0776 3e-4 -5.0242 1.187-10.173 1.782-15.338 1.7726-8.8896 0-11.28-4.1726-11.965-5.9098-0.5503-1.5013-0.8998-3.0673-1.0395-4.6583-0.0014-0.0267 0.0036-0.0534 0.0145-0.0779 0.0109-0.0244 0.0276-0.046 0.0485-0.0629 0.021-0.0169 0.0457-0.0287 0.0721-0.0344 0.0264-0.0058 0.0538-0.0052 0.08 0.0015 4.9405 1.1789 10.005 1.7739 15.087 1.7726 1.2223 0 2.441 0 3.6634-0.0319 5.1115-0.1418 10.499-0.4006 15.528-1.372 0.1255-0.0248 0.2509-0.0461 0.3585-0.078 7.9325-1.5067 15.482-6.2359 16.249-18.212 0.0287-0.4715 0.1004-4.9384 0.1004-5.4276 0.0036-1.6627 0.5413-11.795-0.0789-18.02zm-12.209 29.882h-8.3411v-20.207c0-4.2542-1.7923-6.4238-5.4378-6.4238-4.0075 0-6.0148 2.5667-6.0148 7.6362v11.061h-8.291v-11.061c0-5.0695-2.0109-7.6362-6.0184-7.6362-3.624 0-5.4342 2.1696-5.4378 6.4238v20.207h-8.334v-20.821c0-4.2542 1.0981-7.6339 3.2942-10.139 2.2654-2.4993 5.237-3.7826 8.9255-3.7826 4.2691 0 7.4952 1.6236 9.6459 4.8675l2.0755 3.4459 2.079-3.4459c2.1507-3.2439 5.3768-4.8675 9.6388-4.8675 3.6849 0 6.6564 1.2833 8.929 3.7826 2.1962 2.5029 3.2942 5.8826 3.2942 10.139l-0.0072 20.821z" fill="inherit"/>
</svg>
