<?xml version="1.0" encoding="UTF-8"?>
<svg width="50px" height="50px" viewBox="0 0 50 50" xmlns="http://www.w3.org/2000/svg">
 <path d="m17.227 46.582c-0.12109 0-0.24219-0.019531-0.35547-0.0625-8.8945-3.3633-14.871-12.012-14.871-21.52 0-12.684 10.316-23 23-23s23 10.316 23 23c0 9.5078-5.9766 18.156-14.871 21.52-0.24609 0.09375-0.52344 0.085938-0.76562-0.027343-0.24219-0.10547-0.42969-0.30859-0.52344-0.55469l-4.9492-13.109c-0.19531-0.51562 0.0625-1.0938 0.58203-1.2891 2.707-1.0195 4.5273-3.6484 4.5273-6.5391 0-3.8594-3.1406-7-7-7s-7 3.1406-7 7c0 2.8906 1.8203 5.5195 4.5273 6.5391 0.51953 0.19531 0.77734 0.77344 0.58203 1.2891l-4.9492 13.105c-0.09375 0.25-0.28125 0.44922-0.52344 0.55859-0.12891 0.0625-0.26953 0.089843-0.41016 0.089843z"/>
</svg>
